<svg width="100%" height="100%" viewBox="0 0 128 128" xmlns="http://www.w3.org/2000/svg" preserveAspectRatio="xMidYMid meet">
  <defs>
    <linearGradient id="bg" x1="0" y1="0" x2="1" y2="1">
      <stop offset="0%" stop-color="#5b6a85"/>
      <stop offset="100%" stop-color="#4b5870"/>
    </linearGradient>
    <linearGradient id="strap" x1="0" y1="0" x2="1" y2="1">
      <stop offset="0%" stop-color="#7fa6d6"/>
      <stop offset="100%" stop-color="#95b8dd"/>
    </linearGradient>
    <linearGradient id="metal" x1="0" y1="0" x2="1" y2="1">
      <stop offset="0%" stop-color="#f1f4f8"/>
      <stop offset="100%" stop-color="#dbe1ea"/>
    </linearGradient>
    <linearGradient id="devAccent" x1="0" y1="0" x2="1" y2="1">
      <stop offset="0%" stop-color="#88c0d0"/>
      <stop offset="100%" stop-color="#5e81ac"/>
    </linearGradient>
  </defs>
  <!-- Body -->
  <rect x="12" y="12" width="104" height="104" rx="10" fill="url(#bg)"/>
  <!-- Top detail -->
  <rect x="27.5" y="18.75" width="72" height="8" rx="4" fill="#ffffff" opacity="0.08"/>
  <!-- Lanyard -->
  <path    d="M48 34       C38 50, 41 72, 58 89       C61 92, 64 95, 64 95       C64 95, 67 92, 70 89       C87 72, 90 50, 80 34"    fill="none"    stroke="url(#strap)"    stroke-width="9"    stroke-linecap="round"    stroke-linejoin="round"/>
  <!-- Ring -->
  <circle cx="64.8" cy="112" r="9" fill="none" stroke="url(#metal)" stroke-width="3.5"/>
  <!-- Connector (dev accent) -->
  <rect x="54.5" y="93" width="20" height="10" rx="3" fill="url(#devAccent)"/>
  <!-- Tiny code mark -->
  <g stroke="#2e3440" stroke-width="1.6" stroke-linecap="round" stroke-linejoin="round" fill="none">
    <path d="M61.5 95.9 L59.6 98 L61.5 100.1"/>
    <path d="M67.5 95.9 L69.4 98 L67.5 100.1"/>
  </g>
</svg>