<?xml version="1.0" encoding="UTF-8"?>
<svg width="128" height="128" viewBox="0 0 128 128" xmlns="http://www.w3.org/2000/svg">

<title>Keycord Devel</title>

<defs>
  <clipPath id="top">
    <path d="M34 18H90C102 18 112 28 112 40V78C112 90 102 100 90 100H34C24 100 16 92 16 82V36C16 26 24 18 34 18Z"/>
  </clipPath>
</defs>

<!-- cord loop -->
<path d="M92 24C103 24 112 33 112 44C112 54 104 62 94 64"
      stroke="#9141AC"
      stroke-width="10"
      stroke-linecap="round"
      fill="none"/>

<!-- plug -->
<rect x="88" y="12" width="22" height="14" rx="4" fill="#C061CB"/>
<rect x="93" y="6" width="3" height="8" rx="1.5" fill="#C061CB"/>
<rect x="101" y="6" width="3" height="8" rx="1.5" fill="#C061CB"/>

<!-- key front -->
<path d="M34 42H90C102 42 112 52 112 64V96C112 108 102 116 90 116H34C24 116 16 108 16 98V52C16 46 24 42 34 42Z"
      fill="#1A5FB4"/>

<!-- key top -->
<path d="M34 18H90C102 18 112 28 112 40V78C112 90 102 100 90 100H34C24 100 16 92 16 82V36C16 26 24 18 34 18Z"
      fill="#62A0EA"/>

<!-- stripes -->
<g clip-path="url(#top)">
  <rect x="-40" y="0" width="36" height="200" transform="rotate(-35)" fill="#26A269"/>
  <rect x="-8" y="0" width="16" height="200" transform="rotate(-35)" fill="#99C1F1"/>
  <rect x="18" y="0" width="36" height="200" transform="rotate(-35)" fill="#26A269"/>
</g>

<!-- cord entering key -->
<path d="M94 64C86 66 80 72 80 80V86"
      stroke="#613583"
      stroke-width="10"
      stroke-linecap="round"/>

<!-- K -->
<path d="M40 50V74"
      stroke="#F8E45C"
      stroke-width="8"
      stroke-linecap="round"/>

<path d="M64 50L48 62L66 74"
      stroke="#F6D32D"
      stroke-width="8"
      stroke-linecap="round"
      stroke-linejoin="round"/>

</svg>