<svg width="100%" height="100%" viewBox="0 0 128 128" xmlns="http://www.w3.org/2000/svg" preserveAspectRatio="xMidYMid meet">
  <defs>
    <linearGradient id="bg" x1="0" y1="0" x2="1" y2="1">
      <stop offset="0%" stop-color="#5b6a85"/>
      <stop offset="100%" stop-color="#4b5870"/>
    </linearGradient>
    <linearGradient id="strap" x1="0" y1="0" x2="1" y2="1">
      <stop offset="0%" stop-color="#7fa6d6"/>
      <stop offset="100%" stop-color="#95b8dd"/>
    </linearGradient>
    <linearGradient id="metal" x1="0" y1="0" x2="1" y2="1">
      <stop offset="0%" stop-color="#f1f4f8"/>
      <stop offset="100%" stop-color="#dbe1ea"/>
    </linearGradient>
  </defs>
  <!-- Body -->
  <rect x="12" y="12" width="104" height="104" rx="10" fill="url(#bg)" stroke="#ffffff" stroke-opacity="0.08"/>
  <!-- Top detail (shifted up) -->
  <rect x="26" y="19" width="72" height="8" rx="4" fill="#ffffff" opacity="0.08" transform="translate(1.517037037037037 -0.2528395061728395) scale(1)"/>
  <!-- Lanyard (shifted up slightly) -->
  <path d="M48 34 C38 50, 41 72, 58 89 C61 92, 64 95, 64 95 C64 95, 67 92, 70 89 C87 72, 90 50, 80 34" fill="none" stroke="url(#strap)" stroke-width="9" stroke-linecap="round" stroke-linejoin="round"/>
  <!-- Connector -->
  <rect x="54.5" y="93" width="20" height="10" rx="3" fill="#4b556b"/>
  <!-- Clip -->
  <rect x="57.8" y="97" width="14" height="9" rx="3" fill="url(#metal)"/>
  <!-- Ring -->
  <circle cx="64.8" cy="112" r="9" fill="none" stroke="url(#metal)" stroke-width="3.5"/>
</svg>