<svg xmlns="http://www.w3.org/2000/svg" width="100%" height="100%" viewBox="0 0 128 128" fill="none" preserveAspectRatio="xMidYMid meet">
  <title>Keycord symbolic icon
</title>
<g fill="currentColor">
  <!-- Key body -->
  <rect x="16" y="44" width="78" height="48" rx="12" transform="translate(-0.7585185185185246 1.0113580246913583) scale(1)"/>
  <!-- K cutout / glyph -->
  <rect x="34" y="54" width="8" height="28" rx="4"/>
  <path d="M60 54a4 4 0 0 1 2.35 7.24L50.8 70l11.55 8.76A4 4 0 1 1 57.5 85L41.5 73a4 4 0 0 1 0-6l16-12A3.98 3.98 0 0 1 60 54z"/>
  <!-- Cord -->
  <path d="M92 28c10 0 18 8 18 18 0 9-6 16-14 18-6 2-10 7-10 13v7a4 4 0 0 1-8 0v-7c0-10 6-18 16-21 5-1 8-5 8-10 0-6-4-10-10-10a4 4 0 0 1 0-8z"/>
  <!-- Plug head -->
  <rect x="88" y="16" width="20" height="14" rx="4" transform="translate(-10.872098765432101 8.596543209876543) scale(1)"/>
  <!-- Plug prongs -->
  <rect x="92" y="8" width="4" height="10" rx="2" transform="translate(-10.872098765432112 7.079506172839507) scale(1)"/>
  <rect x="100" y="8" width="4" height="10" rx="2" transform="translate(-11.124938271604945 7.079506172839504) scale(1)"/>
</g>
</svg>