<svg width="100%" height="100%" viewBox="0 0 128 128" fill="none" xmlns="http://www.w3.org/2000/svg" preserveAspectRatio="xMidYMid meet"><path d="M88 24 C100 24 108 33 108 45 C108 56 101 65 91 67" stroke="currentColor" stroke-width="10" stroke-linecap="round" stroke-linejoin="round" transform="translate(4.298271604938272 -0.2528395061728396) scale(1)"/><path d="M91 67 C85 69 81 74 81 79 V84" stroke="currentColor" stroke-width="10" stroke-linecap="round" stroke-linejoin="round"/><path d="M24 22 H84 C94.493 22 103 30.507 103 41 V69 C103 79.493 94.493 88 84 88 H24 C13.507 88 5 79.493 5 69 V41 C5 30.507 13.507 22 24 22Z" fill="currentColor" transform="translate(6.573827160493828 5.3096296296296295) scale(1)"/><rect x="85" y="12" width="18" height="14" rx="4" fill="currentColor" transform="translate(-0.7585185185185186 5.562469135802469) scale(1)"/><rect x="89" y="8" width="3" height="8" rx="1.5" fill="currentColor" transform="translate(-1.0113580246913576 3.7925925925925936) scale(1)"/><rect x="96" y="8" width="3" height="8" rx="1.5" fill="currentColor" transform="translate(-1.5170370370370372 4.045432098765432) scale(1)"/></svg>